<?xml version="1.0" encoding="UTF-8" standalone="no"?>
<!-- Created with Inkscape (http://www.inkscape.org/) -->

<svg
   width="38.799122mm"
   height="49.066978mm"
   viewBox="0 0 38.799122 49.066978"
   version="1.1"
   id="svg1"
   inkscape:version="1.4.2 (2aeb623e1d, 2025-05-12)"
   sodipodi:docname="avator.svg"
   xmlns:inkscape="http://www.inkscape.org/namespaces/inkscape"
   xmlns:sodipodi="http://sodipodi.sourceforge.net/DTD/sodipodi-0.dtd"
   xmlns="http://www.w3.org/2000/svg"
   xmlns:svg="http://www.w3.org/2000/svg">
  <sodipodi:namedview
     id="namedview1"
     pagecolor="#ffffff"
     bordercolor="#999999"
     borderopacity="1"
     inkscape:showpageshadow="2"
     inkscape:pageopacity="0"
     inkscape:pagecheckerboard="0"
     inkscape:deskcolor="#d1d1d1"
     inkscape:document-units="mm"
     inkscape:zoom="1.3897306"
     inkscape:cx="-61.162932"
     inkscape:cy="434.6166"
     inkscape:window-width="1920"
     inkscape:window-height="1843"
     inkscape:window-x="1920"
     inkscape:window-y="40"
     inkscape:window-maximized="1"
     inkscape:current-layer="layer1" />
  <defs
     id="defs1" />
  <g
     inkscape:label="Layer 1"
     inkscape:groupmode="layer"
     id="layer1"
     transform="translate(-123.29584,-33.602083)">
    <g
       id="g18"
       transform="matrix(0.26458333,0,0,0.26458333,110.34107,17.927373)">
			<g
   id="g17">
				<path
   style="fill:#ecd0b9"
   d="m 162.222,117.13 c -1.271,-26.689 -13.027,-40.351 -41.304,-40.351 -28.277,0 -40.033,13.662 -41.304,40.351 -0.238,5.02 0.029,9.916 0.689,14.583 2.84,20.147 12.979,36.017 21.233,39.111 10.167,3.813 19.381,3.813 19.381,3.813 0,0 9.214,0 19.381,-3.813 8.254,-3.095 18.393,-18.965 21.233,-39.111 0.662,-4.667 0.929,-9.563 0.691,-14.583 z"
   id="path1" />

				<path
   style="fill:#ecd0b9"
   d="m 85.73,141.475 c 0.291,-2.666 -0.55,-5.325 -2.192,-7.445 -3.021,-3.9 -7.725,-6.051 -12.026,-2.762 -5.401,4.13 -1.589,18.428 10.167,15.568 2.86,-0.794 3.813,-3.177 4.051,-5.361 z"
   id="path2" />

				<g
   id="g3">
					<path
   style="fill:#dca495"
   d="m 80.249,140.465 c -0.29,0 -0.536,-0.222 -0.561,-0.516 -0.157,-1.882 -0.732,-3.116 -1.71,-3.665 -1.542,-0.867 -3.651,0.169 -3.672,0.18 -0.279,0.139 -0.617,0.026 -0.756,-0.252 -0.139,-0.278 -0.026,-0.617 0.252,-0.756 0.108,-0.054 2.67,-1.31 4.728,-0.154 1.324,0.744 2.091,2.276 2.281,4.554 0.026,0.31 -0.204,0.582 -0.514,0.608 -0.016,0.001 -0.032,0.001 -0.048,0.001 z"
   id="path3" />

				</g>

				<g
   id="g4">
					<path
   style="fill:#dca495"
   d="m 76.588,141.874 c -0.239,0 -0.461,-0.154 -0.537,-0.394 -0.032,-0.1 -0.761,-2.469 0.359,-4.037 0.589,-0.824 1.545,-1.258 2.843,-1.289 0.004,0 0.009,0 0.014,0 0.305,0 0.555,0.243 0.563,0.55 0.008,0.311 -0.239,0.569 -0.55,0.577 -0.924,0.022 -1.582,0.297 -1.954,0.818 -0.784,1.097 -0.207,3.024 -0.201,3.043 0.094,0.297 -0.071,0.613 -0.368,0.707 -0.055,0.016 -0.112,0.025 -0.169,0.025 z"
   id="path4" />

				</g>

				<path
   style="fill:#ecd0b9"
   d="m 156.106,141.475 c -0.291,-2.666 0.55,-5.325 2.192,-7.445 3.021,-3.9 7.725,-6.051 12.027,-2.762 5.401,4.13 1.589,18.428 -10.167,15.568 -2.861,-0.794 -3.814,-3.177 -4.052,-5.361 z"
   id="path5" />

				<g
   id="g6">
					<path
   style="fill:#dca495"
   d="m 161.587,140.465 c 0.29,0 0.536,-0.222 0.561,-0.516 0.157,-1.882 0.732,-3.116 1.71,-3.665 1.542,-0.867 3.651,0.169 3.672,0.18 0.279,0.139 0.617,0.026 0.756,-0.252 0.139,-0.278 0.026,-0.617 -0.252,-0.756 -0.108,-0.054 -2.67,-1.31 -4.728,-0.154 -1.324,0.744 -2.091,2.276 -2.281,4.554 -0.026,0.31 0.204,0.582 0.514,0.608 0.016,0.001 0.032,0.001 0.048,0.001 z"
   id="path6" />

				</g>

				<g
   id="g7">
					<path
   style="fill:#dca495"
   d="m 165.248,141.874 c 0.239,0 0.461,-0.154 0.537,-0.394 0.032,-0.1 0.761,-2.469 -0.359,-4.037 -0.589,-0.824 -1.546,-1.258 -2.843,-1.289 -0.005,0 -0.009,0 -0.014,0 -0.305,0 -0.555,0.243 -0.563,0.55 -0.008,0.311 0.238,0.569 0.549,0.577 0.924,0.022 1.582,0.297 1.954,0.818 0.784,1.097 0.207,3.024 0.201,3.043 -0.094,0.297 0.071,0.613 0.367,0.707 0.057,0.016 0.114,0.025 0.171,0.025 z"
   id="path7" />

				</g>

				<path
   style="fill:#2d3d41"
   d="m 102.49,124.755 c 4.13,0 8.548,6.039 4.13,11.438 -2.859,3.495 -11.657,1.398 -10.803,-5.719 0.478,-3.972 3.958,-5.719 6.673,-5.719 z"
   id="path8" />

				<path
   style="fill:#dca495"
   d="m 132.867,173.055 c -6.825,1.582 -11.95,1.582 -11.95,1.582 0,0 -5.125,0 -11.95,-1.582 -0.076,4.461 -0.213,14.768 0.035,16.992 0.318,2.859 3.177,5.719 11.915,5.719 8.737,0 11.597,-2.859 11.915,-5.719 0.248,-2.224 0.112,-12.531 0.035,-16.992 z"
   id="path9" />

				<path
   style="fill:#adc44a"
   d="m 175.725,232.302 c 0,0 -3.663,7.521 -28.344,10.844 -6.999,0.944 -15.689,1.547 -26.463,1.547 h -0.003 c -48.767,0 -54.804,-12.391 -54.804,-12.391 0,0 -0.937,-39.064 42.749,-47.766 0.006,2.52 0.048,4.636 0.143,5.509 0.318,2.86 3.177,5.719 11.915,5.719 8.737,0 11.597,-2.859 11.915,-5.719 0.095,-0.874 0.137,-2.99 0.143,-5.509 6.691,1.331 12.334,3.377 17.097,5.887 26.325,13.866 25.652,41.879 25.652,41.879 z"
   id="path10" />

				<path
   style="fill:#2d3d41"
   d="m 139.346,124.755 c -4.13,0 -8.548,6.039 -4.13,11.438 2.859,3.495 11.657,1.398 10.803,-5.719 -0.478,-3.972 -3.959,-5.719 -6.673,-5.719 z"
   id="path11" />

				<path
   style="fill:#2d3d41"
   d="m 102.598,135.625 c -1.411,0 -2.815,-0.595 -3.665,-1.553 -0.764,-0.861 -1.069,-1.982 -0.906,-3.333 0.357,-2.974 3.076,-3.76 4.464,-3.76 1.225,0 2.612,1.052 3.298,2.501 0.473,0.997 0.986,3.013 -0.889,5.304 -0.431,0.527 -1.292,0.841 -2.302,0.841 z"
   id="path12" />

				<path
   style="fill:#2d3d41"
   d="m 139.238,135.625 c -1.011,0 -1.871,-0.314 -2.302,-0.84 -1.875,-2.292 -1.362,-4.307 -0.889,-5.304 0.687,-1.449 2.074,-2.501 3.298,-2.501 1.388,0 4.107,0.786 4.464,3.76 0.162,1.351 -0.143,2.473 -0.907,3.333 -0.849,0.957 -2.253,1.552 -3.664,1.552 0.001,0 0.001,0 0,0 z"
   id="path13" />

				<circle
   style="fill:#ffffff"
   cx="143.317"
   cy="129.521"
   r="1.589"
   id="circle13" />

				<path
   style="fill:#ffffff"
   d="m 107.097,129.521 c 0,0.877 -0.711,1.589 -1.589,1.589 -0.877,0 -1.589,-0.711 -1.589,-1.589 0,-0.877 0.711,-1.589 1.589,-1.589 0.878,0 1.589,0.711 1.589,1.589 z"
   id="path14" />

				<g
   id="g16">
					<path
   style="fill:#96ac35"
   d="m 175.725,232.304 c 0,0 -2.758,5.662 -19.61,9.331 -0.934,-2.129 -1.954,-5.058 -2.628,-8.766 -0.769,-4.216 -1.087,-9.436 -0.321,-15.622 1.274,-10.313 4.772,-16.089 7.644,-19.193 8.734,8.251 12.356,18.167 13.856,25.202 1.148,5.359 1.059,9.048 1.059,9.048 z"
   id="path15" />

					<path
   style="fill:#96ac35"
   d="m 66.115,232.304 c 0,0 2.758,5.662 19.61,9.331 0.934,-2.129 1.954,-5.058 2.627,-8.766 0.769,-4.216 1.087,-9.436 0.321,-15.622 -1.274,-10.313 -4.772,-16.089 -7.644,-19.193 -8.734,8.251 -12.356,18.167 -13.856,25.202 -1.147,5.359 -1.058,9.048 -1.058,9.048 z"
   id="path16" />

				</g>

			</g>

		</g>
    <path
       style="fill:#243843;stroke-width:0.264583"
       d="m 144.92132,47.508318 c 0.005,-0.0426 0.014,-0.07964 0.0217,-0.109008 l 0.0124,-0.04313 0.0143,-0.03466 c 0.0193,-0.04789 0.0418,-0.07699 0.0645,-0.09948 0.0463,-0.04418 0.10055,-0.03545 0.15108,-0.04366 0.1024,-0.01164 0.20426,-0.01931 0.30586,-0.02672 0.1016,-0.0077 0.2032,-0.01005 0.3048,-0.01349 h 0.30427 c 0.40534,0.0093 0.80989,0.05345 1.20729,0.134409 0.1995,0.03572 0.39503,0.09313 0.58976,0.147108 0.0968,0.0299 0.19235,0.06615 0.28787,0.09869 l 0.14261,0.05186 0.1397,0.06059 0.27596,0.125147 c 0.0889,0.04948 0.1778,0.0971 0.26511,0.147638 0.0434,0.0254 0.0876,0.04948 0.13018,0.07593 l 0.12514,0.08493 c 0.082,0.059 0.16431,0.115358 0.24368,0.175948 0.0661,0.05027 0.0789,0.144462 0.0286,0.210608 -0.0394,0.05186 -0.1061,0.07091 -0.16484,0.05239 l -0.01,-0.0032 c -0.36433,-0.115358 -0.71331,-0.236008 -1.07791,-0.305858 l -0.13414,-0.03122 -0.13653,-0.02302 c -0.0907,-0.01561 -0.18018,-0.0344 -0.27119,-0.04709 -0.1823,-0.02381 -0.36301,-0.05001 -0.5461,-0.0635 -0.3646,-0.03122 -0.73025,-0.04551 -1.09538,-0.03545 l -0.27331,0.01032 -0.27226,0.01879 c -0.0905,0.0077 -0.18071,0.01561 -0.26935,0.02699 -0.0455,0.0011 -0.0865,0.02381 -0.13573,-0.0077 -0.0249,-0.0164 -0.0503,-0.03836 -0.0783,-0.07858 l -0.0214,-0.0291 -0.023,-0.03757 c -0.0161,-0.02566 -0.0307,-0.05794 -0.0495,-0.09657 l -0.0101,-0.02064 c -0.0426,-0.08758 -0.0569,-0.181505 -0.046,-0.271728 z"
       id="path18" />
    <path
       style="fill:#2d3d41;stroke-width:0.264583"
       d="m 150.08625,51.445583 c -0.002,-0.0061 -0.0577,-0.220133 -0.20955,-0.50509 0.0759,-0.454289 0.0661,-0.982927 0.0526,-1.267354 -0.004,-0.08758 -0.10001,-0.1397 -0.17568,-0.09551 -0.31909,0.185208 -0.68554,0.233627 -0.957,0.239977 -0.30136,-0.168011 -0.66702,-0.293159 -1.11125,-0.333375 -1.91744,-0.174625 -2.71198,1.025525 -2.74479,1.076589 -0.0445,0.06932 -0.0243,0.161396 0.0447,0.205846 0.0688,0.04445 0.16086,0.02461 0.20558,-0.04445 0.0294,-0.04498 0.73739,-1.099079 2.46724,-0.941387 1.71794,0.156104 2.12222,1.67296 2.13889,1.737518 0.0172,0.06747 0.0778,0.112448 0.14446,0.112448 0.0119,0 0.0243,-0.0016 0.0365,-0.0045 0.0796,-0.02011 0.12833,-0.100806 0.10822,-0.18071 z"
       id="path19" />
    <path
       style="fill:#bd5559;stroke-width:0.264583"
       d="m 144.60435,60.090843 c 0,0 -0.59135,1.743075 -2.27172,1.743075 -1.67957,0 -2.27065,-1.743075 -2.27065,-1.743075 2.18281,-0.837141 2.27065,-0.08043 2.27065,-0.08043 0,0 0.0892,-0.756708 2.27172,0.08043 z"
       id="path20" />
    <g
       id="g22"
       transform="matrix(0.26458333,0,0,0.26458333,110.34107,17.927373)">
			<g
   id="g21">
				<path
   style="fill:#d47b76"
   d="m 132.263,157.492 c -0.108,0.188 -2.711,4.574 -11.349,4.574 -8.634,0 -11.237,-4.385 -11.346,-4.574 -0.152,-0.268 -0.06,-0.613 0.212,-0.765 0.268,-0.156 0.613,-0.064 0.765,0.204 0.036,0.06 2.455,4.009 10.368,4.009 7.994,0 10.348,-3.965 10.372,-4.005 0.152,-0.268 0.497,-0.365 0.765,-0.208 0.273,0.152 0.365,0.496 0.213,0.765 z"
   id="path21" />

			</g>

		</g>
    <path
       style="fill:#d47b76;stroke-width:0.264583"
       d="m 142.33316,56.290104 c 0,0 -1.76503,-0.135202 -1.78302,0.180181 -0.018,0.315119 1.03584,1.341967 1.78302,1.341967 0.74719,0 1.80102,-1.026848 1.78303,-1.341967 -0.018,-0.315119 -1.78303,-0.180181 -1.78303,-0.180181 z"
       id="path22" />
    <path
       style="fill:#243843;stroke-width:0.264583"
       d="m 139.74527,47.508318 c -0.005,-0.0426 -0.014,-0.07964 -0.0217,-0.109008 l -0.0124,-0.04313 -0.0143,-0.03466 c -0.0193,-0.04789 -0.0418,-0.07699 -0.0646,-0.09948 -0.0463,-0.04418 -0.10081,-0.03545 -0.15108,-0.04366 -0.10239,-0.01164 -0.20426,-0.01931 -0.30586,-0.02672 -0.1016,-0.0077 -0.2032,-0.01005 -0.3048,-0.01349 h -0.30427 c -0.40534,0.0093 -0.80989,0.05345 -1.20729,0.134409 -0.1995,0.03572 -0.39503,0.09313 -0.58976,0.147108 -0.0968,0.0299 -0.19209,0.06615 -0.28787,0.09869 l -0.14261,0.05186 -0.1397,0.06059 -0.27596,0.125147 c -0.0889,0.04948 -0.1778,0.0971 -0.26511,0.147638 -0.0434,0.0254 -0.0873,0.04948 -0.13017,0.07593 l -0.12515,0.08493 c -0.082,0.059 -0.16431,0.115358 -0.24368,0.175948 -0.0661,0.05027 -0.0788,0.144462 -0.0286,0.210608 0.0394,0.05186 0.1061,0.07091 0.16484,0.05239 l 0.01,-0.0032 c 0.36433,-0.115358 0.71331,-0.236008 1.07791,-0.305858 l 0.13414,-0.03122 0.13653,-0.02302 c 0.0908,-0.01561 0.18018,-0.0344 0.2712,-0.04709 0.18229,-0.02381 0.363,-0.05001 0.5461,-0.0635 0.36459,-0.03122 0.73025,-0.04551 1.09537,-0.03545 l 0.27332,0.01032 0.27199,0.01879 c 0.0905,0.0077 0.18071,0.01561 0.26934,0.02699 0.0455,0.0011 0.0865,0.02381 0.13573,-0.0077 0.0251,-0.0164 0.0503,-0.03836 0.0786,-0.07858 l 0.0214,-0.0291 0.023,-0.03757 c 0.0161,-0.02566 0.0307,-0.05794 0.0495,-0.09657 l 0.0101,-0.02064 c 0.0423,-0.08758 0.0566,-0.181505 0.046,-0.271728 z"
       id="path23" />
    <path
       style="fill:#2d3d41;stroke-width:0.264583"
       d="m 139.72728,50.560552 c -0.0328,-0.05107 -0.82761,-1.251215 -2.74479,-1.07659 -0.44423,0.04048 -0.80988,0.165365 -1.11125,0.33364 -0.27146,-0.0061 -0.6387,-0.05424 -0.95832,-0.239977 -0.0759,-0.04419 -0.17145,0.0079 -0.17568,0.09551 -0.0135,0.284957 -0.0233,0.814652 0.0532,1.269471 -0.15108,0.283898 -0.2069,0.496888 -0.20849,0.503238 -0.0198,0.07964 0.0286,0.160337 0.10821,0.180445 0.0122,0.0032 0.0243,0.0045 0.0365,0.0045 0.0667,0 0.12726,-0.04498 0.14446,-0.112448 0.0164,-0.06456 0.42095,-1.58115 2.13889,-1.737518 1.73011,-0.157692 2.43814,0.896408 2.46724,0.941387 0.0447,0.06906 0.13679,0.08864 0.20558,0.04445 0.0688,-0.04445 0.0889,-0.136789 0.0445,-0.20611 z"
       id="path24" />
    <path
       style="fill:#adc44a;stroke-width:0.264583"
       d="m 149.71213,47.115677 c -1.28376,-0.305859 -3.99548,-0.852488 -8.75692,-1.390386 -7.16968,-0.809625 -16.01417,1.787261 -16.90608,3.057525 -0.42704,0.607748 -0.40031,0.911225 -0.25638,1.062567 -0.0521,-0.02355 -0.1016,-0.04868 -0.14869,-0.07646 -1.75684,-1.026318 3.51207,-6.322483 7.34959,-7.159624 3.83672,-0.8382 4.67387,-1.0541 10.37511,-0.486834 5.70203,0.567531 9.72793,0.378354 10.97042,-0.783431 0,0 0.59531,0.837406 4.29656,0.89191 3.70205,0.05371 5.40438,0.269875 5.45836,1.54014 0.0526,1.2573 -2.28097,4.135702 -12.38197,3.344598 z"
       id="path25"
       sodipodi:nodetypes="ccccccccccc" />
    <path
       style="fill:none;stroke:#3b3b3b;stroke-width:0.0840581;stroke-miterlimit:10"
       d="m 157.52263,57.037287 -0.25056,0.0926 c 0.14208,-0.06059 0.23442,-0.08837 0.25056,-0.0926 z"
       id="path26" />
    <path
       style="fill:#96ac35;stroke-width:0.264583"
       d="m 153.5597,64.711262 c -0.24633,0.363008 -4.74372,7.010929 -6.18622,11.196373 -0.78529,-1.819275 -0.56833,-3.773752 1.07526,-5.900473 1.1819,-1.529027 3.57003,-3.303588 5.11096,-5.2959 z"
       id="path27" />
    <path
       style="fill:#96ac35;stroke-width:0.264583"
       d="m 130.38776,49.389241 c -1.42743,0.345546 -4.49316,0.989542 -6.14257,0.605367 0,0 -0.29581,0.01588 -0.45217,-0.148696 -0.14367,-0.151341 -0.17066,-0.454819 0.25638,-1.062566 0.073,-0.103453 0.19843,-0.216165 0.37147,-0.334698 0.0143,-0.01006 0.0286,-0.02011 0.0437,-0.02937 0.0151,-0.01005 0.031,-0.02011 0.0463,-0.03016 0.0791,-0.05054 0.16563,-0.1016 0.25982,-0.153723 0.0193,-0.01005 0.0386,-0.0209 0.0579,-0.03122 0.0394,-0.0209 0.0799,-0.04207 0.12118,-0.06297 0.0201,-0.01085 0.0413,-0.02196 0.063,-0.03202 0.0209,-0.01085 0.0429,-0.02196 0.0648,-0.03201 0.28998,-0.142082 0.63129,-0.287602 1.01626,-0.434711 0.0363,-0.01429 0.073,-0.02778 0.11007,-0.04207 0.11086,-0.04127 0.22542,-0.08228 0.3429,-0.124354 0.0386,-0.01349 0.0791,-0.02778 0.11853,-0.04127 0.24474,-0.08414 0.50271,-0.169068 0.77259,-0.252941 0.0831,-0.02514 0.16801,-0.05054 0.254,-0.07646 0.13361,-0.03942 0.27066,-0.07911 0.40931,-0.119327 0.003,0 0.005,-7.94e-4 0.008,-0.0016 0.0471,-0.01349 0.095,-0.02699 0.14287,-0.04048 0.14209,-0.03942 0.28681,-0.07805 0.43471,-0.117739 8e-4,0 0.002,0 0.004,-7.94e-4 0.23786,-0.06218 0.48339,-0.124354 0.73395,-0.184944 0.009,-0.0016 0.0193,-0.0042 0.0294,-0.0066 0.31274,-0.07488 0.63553,-0.147903 0.96494,-0.217753 0.0143,-0.0024 0.0286,-0.0058 0.0429,-0.0093 0.11192,-0.02355 0.22437,-0.0463 0.33787,-0.06985 -0.2331,0.927894 -0.42624,2.020623 -0.41195,3.052233 z"
       id="path28" />
    <path
       style="fill:#243843;stroke-width:0.264583"
       d="m 135.37674,45.685339 c -1.00462,1.340909 -1.98385,2.83554 -2.42517,4.056857 -1.0803,2.990056 -1.02553,3.911599 -1.39541,3.559174 -0.36989,-0.352954 -1.0541,-1.145645 -1.16258,-3.703108 -0.0463,-1.092729 0.15795,-2.270654 0.40613,-3.261783 1.42716,-0.287867 2.98503,-0.520965 4.57703,-0.65114 z"
       id="path29" />
    <path
       style="fill:#243843;stroke-width:0.264583"
       d="m 154.27275,49.598527 c -0.10848,2.557198 -0.79269,3.349889 -1.16258,3.703108 -0.36989,0.35216 -0.31432,-0.569119 -1.39541,-3.559175 -0.28416,-0.785283 -0.79031,-1.683808 -1.38298,-2.581539 1.39462,0.09154 2.63446,0.110066 3.73327,0.07223 0.14632,0.766498 0.24051,1.587764 0.2077,2.365375 z"
       id="path30" />
    <path
       style="fill:#96ac35;stroke-width:0.264583"
       d="m 152.33918,41.339294 c -1.24249,1.161785 -5.26839,1.350962 -10.97042,0.783431 -5.39115,-0.536311 -6.43255,-0.372534 -9.77398,0.3556 l 0.58844,-0.626269 0.14367,-0.512762 c 0,0 1.96294,-7.737211 10.00601,-7.737211 8.04307,0 10.00628,7.737211 10.00628,7.737211 z"
       id="path31"
       sodipodi:nodetypes="cccccsc" />
    <g
       id="g36"
       transform="matrix(0.26458333,0,0,0.26458333,110.34107,17.927373)">
			<g
   id="g32">
				<path
   style="fill:#96ac35"
   d="m 187.28,99.607 c -0.067,0 -0.135,-0.021 -0.193,-0.065 -4.429,-3.393 -10.416,-3.806 -15.681,-3.926 l -1.035,-0.022 c -5.264,-0.11 -10.707,-0.223 -15.374,-2.694 -0.155,-0.082 -0.214,-0.274 -0.132,-0.429 0.082,-0.155 0.274,-0.215 0.43,-0.132 4.534,2.4 9.901,2.512 15.09,2.62 l 1.036,0.022 c 5.365,0.123 11.473,0.547 16.053,4.057 0.139,0.107 0.166,0.306 0.059,0.446 -0.063,0.08 -0.158,0.123 -0.253,0.123 z"
   id="path32" />

			</g>

			<g
   id="g33">
				<path
   style="fill:#96ac35"
   d="m 181.035,103.045 c -0.105,0 -0.208,-0.052 -0.269,-0.148 -0.784,-1.238 -2.228,-2.169 -4.065,-2.622 -1.359,-0.335 -2.801,-0.401 -4.196,-0.464 -0.304,-0.014 -0.608,-0.028 -0.911,-0.044 -7.152,-0.389 -14.301,-2.322 -20.674,-5.588 -0.156,-0.08 -0.218,-0.271 -0.138,-0.428 0.08,-0.156 0.271,-0.217 0.428,-0.138 6.295,3.226 13.356,5.134 20.419,5.519 0.301,0.017 0.603,0.03 0.905,0.044 1.425,0.065 2.9,0.132 4.319,0.482 1.997,0.492 3.577,1.521 4.45,2.899 0.094,0.148 0.05,0.345 -0.098,0.438 -0.053,0.034 -0.112,0.05 -0.17,0.05 z"
   id="path33" />

			</g>

			<g
   id="g34">
				<path
   style="fill:#96ac35"
   d="m 63.536,107.6 c -0.046,0 -0.093,-0.01 -0.137,-0.031 -0.158,-0.076 -0.225,-0.266 -0.149,-0.424 1.754,-3.652 5.328,-6.631 10.621,-8.855 1.794,-0.754 3.664,-1.392 5.473,-2.01 2.507,-0.856 5.1,-1.741 7.498,-2.94 0.157,-0.078 0.348,-0.015 0.426,0.142 0.078,0.157 0.015,0.348 -0.142,0.426 -2.437,1.217 -5.05,2.11 -7.577,2.972 -1.798,0.614 -3.658,1.249 -5.432,1.994 -5.146,2.162 -8.61,5.037 -10.295,8.545 -0.054,0.114 -0.168,0.181 -0.286,0.181 z"
   id="path34" />

			</g>

			<g
   id="g35">
				<path
   style="fill:#adc44a"
   d="m 154.122,88.616 c -0.159,0 -0.295,-0.118 -0.315,-0.279 -0.823,-6.756 -4.346,-13.065 -9.666,-17.31 -0.137,-0.11 -0.16,-0.309 -0.05,-0.447 0.109,-0.137 0.309,-0.16 0.447,-0.05 5.448,4.348 9.057,10.811 9.9,17.73 0.021,0.174 -0.103,0.333 -0.277,0.354 -0.013,10e-4 -0.026,0.002 -0.039,0.002 z"
   id="path35" />

			</g>

		</g>
    <path
       style="fill:#adc44a;stroke-width:0.264583"
       d="m 147.46185,63.124556 c -0.74957,0.281252 -1.47955,0.483658 -2.14286,0.629973 0.0585,-0.01297 0.11721,-0.02619 0.17647,-0.03995 0.0164,0.953822 0.0431,2.918089 0.018,3.946789 0.006,-0.255323 0.01,-0.56806 0.0106,-0.908844 1.77059,0.35269 3.26284,0.894557 4.52252,1.558132 0.54293,-0.519377 1.13136,-1.060715 1.70683,-1.623484 0.11747,-0.114829 0.23442,-0.230716 0.35057,-0.347662 0.28998,-0.291836 0.57309,-0.589227 0.84191,-0.891911 0.16139,-0.181504 0.3175,-0.365125 0.46672,-0.550598 0.0497,-0.06191 0.0987,-0.123825 0.14684,-0.186266 0.005,-0.0066 0.008,-0.01085 0.0101,-0.01349 0.84825,-1.101196 1.43669,-2.269596 1.41737,-3.498585 -0.0347,-2.226998 -1.74995,-3.535363 -2.9673,-4.184915 -1.18322,3.215746 -2.99747,5.526088 -4.55771,6.110817 z"
       id="path36" />
    <path
       style="fill:#96ac35;stroke-width:0.264583"
       d="m 131.10663,64.711262 c 0.24633,0.363008 4.74371,7.010929 6.18622,11.196373 0.78528,-1.819275 0.56833,-3.773752 -1.07527,-5.900473 -1.18189,-1.529027 -3.57002,-3.303588 -5.11095,-5.2959 z"
       id="path37" />
    <path
       style="fill:#adc44a;stroke-width:0.264583"
       d="m 137.20448,63.124556 c 0.74956,0.281252 1.47955,0.483658 2.14286,0.629973 -0.0585,-0.01297 -0.11721,-0.02619 -0.17648,-0.03995 -0.0164,0.953822 -0.0431,2.918089 -0.018,3.946789 -0.006,-0.255323 -0.01,-0.56806 -0.0106,-0.908844 -1.77059,0.35269 -3.26284,0.894557 -4.52252,1.558132 -0.54319,-0.519377 -1.13163,-1.060715 -1.70683,-1.623484 -0.11748,-0.114829 -0.23469,-0.230716 -0.35057,-0.347662 -0.28999,-0.291836 -0.57309,-0.589227 -0.84191,-0.891911 -0.16139,-0.181504 -0.3175,-0.365125 -0.46672,-0.550598 -0.0497,-0.06191 -0.0987,-0.123825 -0.14685,-0.186266 -0.005,-0.0066 -0.008,-0.01085 -0.0101,-0.01349 -0.84826,-1.101196 -1.43669,-2.269596 -1.41737,-3.498585 0.0347,-2.226998 1.74995,-3.535363 2.9673,-4.184915 1.18295,3.215746 2.99746,5.526088 4.55771,6.110817 z"
       id="path38" />
    <path
       style="fill:#243843;stroke-width:0.264583"
       d="m 148.44874,70.007427 c -1.64332,2.12672 -1.86028,4.081197 -1.07526,5.900472 0,0 0,0 0,7.94e-4 0.0926,0.214313 0.19923,0.427038 0.31855,0.637911 0.94404,1.663699 1.8124,3.775339 1.6436,5.712883 -1.68805,0.227806 -3.74756,0.379941 -6.25687,0.405077 -0.24368,0.0024 -0.49186,0.0042 -0.7448,0.0042 h -0.002 c -0.25215,0 -0.49927,-0.0016 -0.74321,-0.0034 -2.51011,-0.02514 -4.57042,-0.17833 -6.25846,-0.406136 -0.16907,-1.937808 0.69929,-4.049448 1.64333,-5.712883 0.11933,-0.211138 0.22622,-0.423598 0.31856,-0.63791 0,-7.94e-4 0,-7.94e-4 0,-7.94e-4 0.78502,-1.819275 0.56832,-3.773752 -1.07527,-5.900473 -0.41434,-0.53631 -0.97684,-1.10199 -1.59888,-1.697302 1.26021,-0.664104 2.75299,-1.205442 4.52358,-1.557602 0.002,0.66675 0.0127,1.226608 0.0378,1.457589 0.0841,0.756709 0.84058,1.513152 3.15251,1.513152 v 0.0026 l 0.002,-0.0026 c 2.31166,0 3.06837,-0.756443 3.15251,-1.513152 0.0251,-0.231245 0.0362,-0.791104 0.0378,-1.457589 1.77033,0.35216 3.26337,0.893498 4.52358,1.557602 -0.6223,0.595577 -1.1848,1.161256 -1.59914,1.697567 z"
       id="path39" />
    <g
       id="g40"
       transform="matrix(0.26458333,0,0,0.26458333,110.34107,17.927373)">
			<path
   style="fill:#577380"
   d="m 134.157,194.32 c -1.205,3.708 -6.908,5.018 -10.424,5.479 v 44.878 c -0.921,0.012 -1.858,0.016 -2.815,0.016 h -0.004 c -0.953,0 -1.89,-0.004 -2.811,-0.012 v -44.882 c -3.516,-0.461 -9.223,-1.77 -10.428,-5.479 -1.77,-5.446 -2.211,-16.68 1.057,-16.732 9.548,1.278 12.183,9.343 12.183,9.343 0,0 2.639,-8.066 12.187,-9.343 3.266,0.052 2.825,11.285 1.055,16.732 z"
   id="path40" />

		</g>
  </g>
</svg>
